<svg id="Camada_1" data-name="Camada 1" xmlns="http://www.w3.org/2000/svg" viewBox="0 0 841.89 595.28"><defs><style>.cls-1{fill:#fff;}</style></defs><path class="cls-1" d="M110.08,567.34a15.79,15.79,0,0,1-4.72-11.84,16,16,0,0,1,4.81-12,16.19,16.19,0,0,1,11.76-4.73,16.92,16.92,0,0,1,13.79,6.64l-4.29,4.21a11.47,11.47,0,0,0-9.16-4.65,9.76,9.76,0,0,0-7.28,3,10.15,10.15,0,0,0-2.95,7.5,9.93,9.93,0,0,0,10.19,10.24,11.48,11.48,0,0,0,9.33-4.69l4.42,4a17.55,17.55,0,0,1-14.14,6.81,16.38,16.38,0,0,1-11.76-4.56"/><path class="cls-1" d="M141.62,550.77a13.21,13.21,0,0,1,18.21,0,12.73,12.73,0,0,1,0,17.66,13.31,13.31,0,0,1-18.21,0,12.73,12.73,0,0,1,0-17.66m9.1,15.57a6.14,6.14,0,0,0,4.64-2,6.81,6.81,0,0,0,1.91-4.81,6.63,6.63,0,0,0-1.91-4.77,6.14,6.14,0,0,0-4.64-1.95,6.26,6.26,0,0,0-4.68,1.95,6.59,6.59,0,0,0-1.87,4.77,6.77,6.77,0,0,0,1.87,4.81,6.26,6.26,0,0,0,4.68,2"/><path class="cls-1" d="M167.68,571.42V547.78h6v3.3a8.36,8.36,0,0,1,7.42-4,9.22,9.22,0,0,1,6.55,2.56c1.78,1.69,2.68,4.12,2.68,7.29v14.44h-6.11v-12.8c0-3.77-2-5.85-5-5.85-3.25,0-5.42,2.47-5.42,6v12.67Z"/><path class="cls-1" d="M193.7,567.47l3.26-3.86a8.79,8.79,0,0,0,6.55,3.3c1.86,0,3.25-.95,3.25-2.3,0-.82-.56-1.52-1.69-2-.39-.17-1.3-.52-2.82-1.08s-2.52-1-3-1.26A6.63,6.63,0,0,1,197.56,549a9.76,9.76,0,0,1,6.42-2,11,11,0,0,1,8.29,3.38l-3,4a7.77,7.77,0,0,0-5.42-2.34c-1.6,0-2.69.91-2.69,2s.69,1.7,2.08,2.17c3.13,1.17,5,2,5.69,2.3,2.64,1.39,4,3.39,4,6a6.76,6.76,0,0,1-2.61,5.46,10.25,10.25,0,0,1-6.81,2.13,11.75,11.75,0,0,1-9.76-4.56"/><path class="cls-1" d="M233.78,570a12.23,12.23,0,0,1-7,2c-5.42,0-8.24-3.21-8.24-9.32V552.9H214.7v-5.12h3.9v-8.37h6.07v8.37h7.81v5.12h-7.81v9.37c0,2.77,1.13,4.16,3.34,4.16a8.11,8.11,0,0,0,4-1.21Z"/><path class="cls-1" d="M236.69,571.42V547.78h5.85v3.16a7,7,0,0,1,6.51-3.81,8.24,8.24,0,0,1,2.86.52l-.52,5.86a9.64,9.64,0,0,0-2.82-.48c-3.47,0-5.77,2.25-5.77,7.15v11.24Z"/><path class="cls-1" d="M254.64,561.44V547.78h6.12v13.66c0,3,1.78,4.95,4.73,4.95s4.72-1.95,4.72-4.95V547.78h6.12v13.66c0,6.64-4.08,10.54-10.84,10.54s-10.85-3.9-10.85-10.54"/><path class="cls-1" d="M282.05,544.05a3.86,3.86,0,0,1,0-5.34,3.91,3.91,0,0,1,5.38,0,3.86,3.86,0,0,1,0,5.34,3.91,3.91,0,0,1-5.38,0m5.73,27.37h-6.12V547.78h6.12Z"/><path class="cls-1" d="M293.24,571.42V547.78h6v3.3a8.36,8.36,0,0,1,7.42-4,9.22,9.22,0,0,1,6.55,2.56c1.78,1.69,2.69,4.12,2.69,7.29v14.44h-6.12v-12.8c0-3.77-2-5.85-5-5.85-3.25,0-5.42,2.47-5.42,6v12.67Z"/><path class="cls-1" d="M338.78,538.45h6.12v33h-6v-2.91a9.09,9.09,0,0,1-7.33,3.47,11.07,11.07,0,0,1-8.37-3.51,13.45,13.45,0,0,1,0-17.74,11,11,0,0,1,8.37-3.56,9.23,9.23,0,0,1,7.2,3.34Zm-1.51,16.31a6.06,6.06,0,0,0-4.73-2,6.24,6.24,0,0,0-4.78,2,6.81,6.81,0,0,0-1.81,4.82,7,7,0,0,0,1.81,4.9,6.35,6.35,0,0,0,4.78,1.95,6.17,6.17,0,0,0,4.73-1.95,7,7,0,0,0,1.82-4.9,6.82,6.82,0,0,0-1.82-4.82"/><path class="cls-1" d="M352.75,550.77a13.22,13.22,0,0,1,18.22,0,12.76,12.76,0,0,1,0,17.66,13.33,13.33,0,0,1-18.22,0,12.73,12.73,0,0,1,0-17.66m9.11,15.57a6.17,6.17,0,0,0,4.64-2,6.81,6.81,0,0,0,1.91-4.81,6.63,6.63,0,0,0-1.91-4.77,6.17,6.17,0,0,0-4.64-1.95,6.26,6.26,0,0,0-4.69,1.95,6.63,6.63,0,0,0-1.86,4.77,6.8,6.8,0,0,0,1.86,4.81,6.26,6.26,0,0,0,4.69,2"/><path class="cls-1" d="M389.22,561.44V547.78h6.12v13.66c0,3,1.78,4.95,4.73,4.95s4.73-1.95,4.73-4.95V547.78h6.11v13.66c0,6.64-4.07,10.54-10.84,10.54s-10.85-3.9-10.85-10.54"/><path class="cls-1" d="M451.64,549.77a9.8,9.8,0,0,1,2.73,7.38v14.27h-6.11V558.28c0-3.6-1.91-5.51-4.73-5.51-3.08,0-5.21,2.21-5.21,5.68v13h-6.11v-13.1c0-3.51-1.87-5.55-4.77-5.55s-5.17,2.21-5.17,5.72v12.93h-6.11V547.78h6v3.38a8,8,0,0,1,7.21-4,7.38,7.38,0,0,1,6.93,4.16,10.09,10.09,0,0,1,8.46-4.16,9.36,9.36,0,0,1,6.9,2.64"/><path class="cls-1" d="M470.33,571.42V547.78h6v3.3a8.33,8.33,0,0,1,7.41-4,9.22,9.22,0,0,1,6.55,2.56c1.78,1.69,2.69,4.12,2.69,7.29v14.44h-6.11v-12.8c0-3.77-2-5.85-5-5.85-3.26,0-5.42,2.47-5.42,6v12.67Z"/><path class="cls-1" d="M500.52,550.77a13.21,13.21,0,0,1,18.21,0,12.73,12.73,0,0,1,0,17.66,13.31,13.31,0,0,1-18.21,0,12.73,12.73,0,0,1,0-17.66m9.11,15.57a6.13,6.13,0,0,0,4.63-2,6.81,6.81,0,0,0,1.91-4.81,6.63,6.63,0,0,0-1.91-4.77,6.13,6.13,0,0,0-4.63-1.95,6.26,6.26,0,0,0-4.69,1.95,6.59,6.59,0,0,0-1.87,4.77,6.77,6.77,0,0,0,1.87,4.81,6.26,6.26,0,0,0,4.69,2"/><polygon class="cls-1" points="541.46 547.78 548.18 547.78 537.9 571.38 533.22 571.38 522.98 547.78 529.71 547.78 535.65 563.09 541.46 547.78"/><path class="cls-1" d="M552.39,550.77a13.22,13.22,0,0,1,18.22,0,12.76,12.76,0,0,1,0,17.66,13.33,13.33,0,0,1-18.22,0,12.73,12.73,0,0,1,0-17.66m9.11,15.57a6.17,6.17,0,0,0,4.64-2,6.81,6.81,0,0,0,1.91-4.81,6.63,6.63,0,0,0-1.91-4.77,6.17,6.17,0,0,0-4.64-1.95,6.26,6.26,0,0,0-4.69,1.95,6.63,6.63,0,0,0-1.86,4.77,6.8,6.8,0,0,0,1.86,4.81,6.26,6.26,0,0,0,4.69,2"/><path class="cls-1" d="M605.87,570a12.24,12.24,0,0,1-7,2c-5.42,0-8.24-3.21-8.24-9.32V552.9h-3.86v-5.12h3.91v-8.37h6.07v8.37h7.81v5.12h-7.81v9.37c0,2.77,1.13,4.16,3.34,4.16a8.14,8.14,0,0,0,3.95-1.21Z"/><path class="cls-1" d="M631.15,561.75H613.41c.87,3.34,3.17,5,6.9,5a14.69,14.69,0,0,0,7.64-2.39l2.42,4.3a17.09,17.09,0,0,1-10.32,3.25c-4.16,0-7.33-1.22-9.54-3.6a12.41,12.41,0,0,1-3.3-8.76,12.12,12.12,0,0,1,3.43-8.89,12.92,12.92,0,0,1,17.39-.31,11.46,11.46,0,0,1,3.34,8.68,20.54,20.54,0,0,1-.22,2.69m-17.74-4.56h12a5.69,5.69,0,0,0-5.9-4.94,6.06,6.06,0,0,0-6.12,4.94"/><path class="cls-1" d="M671.06,549.77a9.8,9.8,0,0,1,2.73,7.38v14.27h-6.11V558.28c0-3.6-1.91-5.51-4.73-5.51-3.08,0-5.21,2.21-5.21,5.68v13h-6.11v-13.1c0-3.51-1.87-5.55-4.78-5.55s-5.16,2.21-5.16,5.72v12.93h-6.11V547.78h6v3.38a8,8,0,0,1,7.2-4,7.4,7.4,0,0,1,6.94,4.16,10.09,10.09,0,0,1,8.46-4.16,9.36,9.36,0,0,1,6.9,2.64"/><path class="cls-1" d="M700.94,550.77a13.34,13.34,0,0,1,0,17.61,10.88,10.88,0,0,1-8.33,3.6,9.7,9.7,0,0,1-7.42-3.29v12.45H679V547.78h6.08v2.91a9.51,9.51,0,0,1,7.5-3.52,10.92,10.92,0,0,1,8.33,3.6m-4.68,13.67a7.28,7.28,0,0,0,0-9.63,6.66,6.66,0,0,0-9.42,0,7.28,7.28,0,0,0,0,9.63,6.66,6.66,0,0,0,9.42,0"/><path class="cls-1" d="M710.87,550.77a13.22,13.22,0,0,1,18.22,0,12.76,12.76,0,0,1,0,17.66,13.33,13.33,0,0,1-18.22,0,12.73,12.73,0,0,1,0-17.66M720,566.34a6.17,6.17,0,0,0,4.64-2,6.81,6.81,0,0,0,1.91-4.81,6.63,6.63,0,0,0-1.91-4.77,6.17,6.17,0,0,0-4.64-1.95,6.26,6.26,0,0,0-4.69,1.95,6.63,6.63,0,0,0-1.86,4.77,6.8,6.8,0,0,0,1.86,4.81,6.26,6.26,0,0,0,4.69,2"/><path class="cls-1" d="M445.6,276a23.39,23.39,0,0,0-23.18,19.94h4.66a18.79,18.79,0,0,1,37.05,0h4.65A23.38,23.38,0,0,0,445.6,276"/><path class="cls-1" d="M433,300.35h0v10.86h11.24v-11H433a.41.41,0,0,1,0,.11"/><path class="cls-1" d="M458.19,300.24h-11v11h11V300.35h0v-.11"/><rect class="cls-1" x="447.19" y="314.15" width="11.01" height="10.34"/><rect class="cls-1" x="447.19" y="327.43" width="11.01" height="10.34"/><rect class="cls-1" x="433.01" y="314.15" width="11.24" height="10.34"/><rect class="cls-1" x="433.01" y="327.43" width="11.24" height="10.34"/><rect class="cls-1" x="447.19" y="340.7" width="11.01" height="10.98"/><rect class="cls-1" x="433.01" y="340.7" width="11.24" height="10.98"/><path class="cls-1" d="M445.6,286.14a12.42,12.42,0,0,0-5.44,1.29l5.44,7.51h0l5.44-7.51a12.49,12.49,0,0,0-5.45-1.29"/><path class="cls-1" d="M458.12,297.37a12.53,12.53,0,0,0-4.89-8.59l-5.17,7.15a3.77,3.77,0,0,1,.93,1.44Z"/><path class="cls-1" d="M438,288.78a12.56,12.56,0,0,0-4.88,8.59h9.13a3.66,3.66,0,0,1,.93-1.44Z"/><path class="cls-1" d="M392.4,276a23.37,23.37,0,0,0-23.18,19.94h4.65a18.79,18.79,0,0,1,37.05,0h4.65A23.37,23.37,0,0,0,392.4,276"/><path class="cls-1" d="M379.81,300.35h0v10.86h11.25v-11H379.81v.11"/><path class="cls-1" d="M405,300.24H394v11h11V300.35h0a.41.41,0,0,1,0-.11"/><rect class="cls-1" x="393.98" y="314.15" width="11.01" height="10.34"/><rect class="cls-1" x="393.98" y="327.43" width="11.01" height="10.34"/><rect class="cls-1" x="379.8" y="314.15" width="11.24" height="10.34"/><rect class="cls-1" x="379.8" y="327.43" width="11.24" height="10.34"/><rect class="cls-1" x="393.98" y="340.7" width="11.01" height="10.98"/><rect class="cls-1" x="379.8" y="340.7" width="11.24" height="10.98"/><path class="cls-1" d="M392.4,286.14a12.49,12.49,0,0,0-5.45,1.29l5.44,7.51h0l5.44-7.51a12.45,12.45,0,0,0-5.44-1.29"/><path class="cls-1" d="M404.91,297.37a12.52,12.52,0,0,0-4.88-8.59l-5.18,7.15a3.66,3.66,0,0,1,.93,1.44Z"/><path class="cls-1" d="M384.76,288.78a12.56,12.56,0,0,0-4.88,8.59H389a3.77,3.77,0,0,1,.93-1.44Z"/><polygon class="cls-1" points="408.27 98.61 412.63 103.06 416.99 98.61 412.63 94.16 408.27 98.61"/><polygon class="cls-1" points="383.97 123.43 388.33 127.88 392.68 123.43 388.33 118.98 383.97 123.43"/><polygon class="cls-1" points="386.61 117.22 382.58 113.11 380.48 119.87 382.25 121.67 386.61 117.22"/><polygon class="cls-1" points="396.12 111.02 400.48 115.47 404.83 111.02 400.48 106.57 396.12 111.02"/><polygon class="cls-1" points="394.4 171.3 398.76 166.85 394.4 162.41 390.04 166.85 394.4 171.3"/><polygon class="cls-1" points="406.55 109.27 410.91 104.82 406.55 100.36 402.19 104.82 406.55 109.27"/><polygon class="cls-1" points="394.4 121.67 398.76 117.23 394.4 112.78 390.04 117.22 394.4 121.67"/><polygon class="cls-1" points="396.12 160.65 400.48 165.1 404.84 160.65 400.48 156.2 396.12 160.65"/><polygon class="cls-1" points="390.04 154.45 394.4 158.9 398.76 154.45 394.4 150 390.04 154.45"/><polygon class="cls-1" points="380.53 135.84 376.73 131.95 374.63 138.71 376.17 140.29 380.53 135.84"/><polygon class="cls-1" points="383.96 148.24 388.32 152.69 392.68 148.24 388.32 143.79 383.96 148.24"/><polygon class="cls-1" points="377.89 142.04 382.25 146.49 386.61 142.04 382.25 137.59 377.89 142.04"/><polygon class="cls-1" points="430.86 87.96 426.5 92.41 430.86 96.86 435.21 92.41 430.86 87.96"/><polygon class="cls-1" points="452.9 106.97 451.89 103.7 450.8 104.82 452.9 106.97"/><polygon class="cls-1" points="458.55 125.14 457.75 122.54 456.88 123.43 458.55 125.14"/><polygon class="cls-1" points="450.8 129.63 455.16 134.08 459.52 129.63 455.16 125.18 450.8 129.63"/><polygon class="cls-1" points="438.65 142.04 443.01 146.49 447.37 142.04 443.01 137.59 438.65 142.04"/><polygon class="cls-1" points="444.72 135.83 449.08 140.28 453.44 135.84 449.08 131.39 444.72 135.83"/><polygon class="cls-1" points="414.34 92.41 418.7 96.86 423.06 92.41 418.7 87.96 414.34 92.41"/><polygon class="cls-1" points="410.91 166.85 406.55 162.41 402.19 166.85 406.55 171.3 410.91 166.85"/><polygon class="cls-1" points="449.08 103.06 451.06 101.04 448.96 94.28 444.72 98.61 449.08 103.06"/><polygon class="cls-1" points="420.42 86.2 424.78 90.66 429.14 86.2 424.78 81.75 420.42 86.2"/><polygon class="cls-1" points="432.57 98.61 436.93 103.06 441.29 98.61 436.93 94.16 432.57 98.61"/><polygon class="cls-1" points="443.01 100.36 438.65 104.82 443.01 109.27 447.37 104.82 443.01 100.36"/><polygon class="cls-1" points="385.51 103.69 384.48 106.98 386.61 104.82 385.51 103.69"/><polygon class="cls-1" points="400.48 103.06 404.84 98.61 400.48 94.16 396.12 98.61 400.48 103.06"/><polygon class="cls-1" points="430.86 75.55 426.5 80 430.86 84.45 435.22 80 430.86 75.55"/><polygon class="cls-1" points="390.04 104.82 394.4 109.27 398.76 104.82 394.4 100.37 390.04 104.82"/><polygon class="cls-1" points="408.27 86.21 412.63 90.66 416.99 86.21 412.63 81.75 408.27 86.21"/><polygon class="cls-1" points="414.35 80 418.7 84.45 423.06 80 418.7 75.55 414.35 80"/><polygon class="cls-1" points="392.68 111.02 388.32 106.57 383.97 111.02 388.32 115.47 392.68 111.02"/><polygon class="cls-1" points="406.55 96.86 410.91 92.41 406.55 87.96 402.19 92.41 406.55 96.86"/><polygon class="cls-1" points="388.33 165.1 392.68 160.65 388.32 156.2 383.97 160.65 388.33 165.1"/><polygon class="cls-1" points="382.25 158.9 386.61 154.45 382.25 150 377.89 154.44 382.25 158.9"/><polygon class="cls-1" points="432.57 148.24 436.93 152.69 441.29 148.24 436.93 143.79 432.57 148.24"/><polygon class="cls-1" points="373.8 141.37 373.19 143.33 374.46 142.04 373.8 141.37"/><polygon class="cls-1" points="380.53 148.24 376.17 143.79 371.82 148.24 376.17 152.69 380.53 148.24"/><polygon class="cls-1" points="436.93 81.75 432.57 86.2 436.93 90.66 441.29 86.2 436.93 81.75"/><polygon class="cls-1" points="435.22 166.85 430.86 162.4 426.5 166.85 430.86 171.3 435.22 166.85"/><polygon class="cls-1" points="443.01 150 438.65 154.45 443.01 158.9 447.37 154.45 443.01 150"/><polygon class="cls-1" points="441.29 160.65 436.93 156.2 432.57 160.65 436.93 165.1 441.29 160.65"/><polygon class="cls-1" points="429.14 173.06 424.78 168.61 420.42 173.06 424.78 177.51 429.14 173.06"/><polygon class="cls-1" points="423.06 179.26 418.7 174.81 414.35 179.26 418.7 183.71 423.06 179.26"/><polygon class="cls-1" points="447.26 88.79 446.04 84.86 444.73 86.2 447.26 88.79"/><polygon class="cls-1" points="416.99 173.06 412.63 168.61 408.27 173.06 412.63 177.51 416.99 173.06"/><polygon class="cls-1" points="438.65 92.41 443.01 96.86 447.37 92.41 443.01 87.96 438.65 92.41"/><polygon class="cls-1" points="449.08 143.79 444.73 148.24 449.08 152.69 453.44 148.24 449.08 143.79"/><polygon class="cls-1" points="461.24 140.29 462.77 138.72 460.67 131.96 456.88 135.84 461.24 140.29"/><polygon class="cls-1" points="455.16 137.59 450.8 142.04 455.16 146.49 459.52 142.04 455.16 137.59"/><polygon class="cls-1" points="379.65 122.53 378.84 125.16 380.53 123.43 379.65 122.53"/><polygon class="cls-1" points="420.42 135.84 424.78 140.29 429.14 135.84 424.78 131.38 420.42 135.84"/><polygon class="cls-1" points="418.71 146.49 423.06 142.04 418.7 137.59 414.35 142.04 418.71 146.49"/><polygon class="cls-1" points="426.5 129.63 430.86 134.08 435.21 129.63 430.86 125.18 426.5 129.63"/><polygon class="cls-1" points="424.78 118.98 420.42 123.43 424.78 127.88 429.14 123.43 424.78 118.98"/><polygon class="cls-1" points="412.63 140.28 416.99 135.84 412.63 131.39 408.27 135.83 412.63 140.28"/><polygon class="cls-1" points="432.57 123.43 436.93 127.88 441.29 123.43 436.93 118.98 432.57 123.43"/><polygon class="cls-1" points="406.55 134.08 410.91 129.63 406.55 125.18 402.19 129.63 406.55 134.08"/><polygon class="cls-1" points="408.27 123.43 412.63 127.88 416.99 123.43 412.63 118.98 408.27 123.43"/><polygon class="cls-1" points="430.86 112.77 426.5 117.22 430.86 121.68 435.21 117.22 430.86 112.77"/><polygon class="cls-1" points="418.7 125.18 414.34 129.63 418.7 134.08 423.06 129.63 418.7 125.18"/><polygon class="cls-1" points="418.7 121.67 423.06 117.22 418.7 112.77 414.35 117.22 418.7 121.67"/><polygon class="cls-1" points="420.42 111.02 424.78 115.47 429.14 111.02 424.78 106.57 420.42 111.02"/><polygon class="cls-1" points="417.57 64.3 414.34 67.59 418.7 72.05 423.06 67.59 419.83 64.3 417.57 64.3"/><polygon class="cls-1" points="396.12 135.83 400.48 140.28 404.84 135.83 400.48 131.38 396.12 135.83"/><polygon class="cls-1" points="429.73 64.3 426.5 67.59 430.86 72.04 435.21 67.59 431.98 64.3 429.73 64.3"/><polygon class="cls-1" points="405.42 64.3 402.19 67.59 406.55 72.05 410.91 67.59 407.68 64.3 405.42 64.3"/><polygon class="cls-1" points="362.1 179.05 361.91 179.67 362.31 179.26 362.1 179.05"/><polygon class="cls-1" points="398.76 80 394.4 75.55 394.17 75.78 392.19 82.19 394.4 84.45 398.76 80"/><polygon class="cls-1" points="388.32 140.28 392.68 135.83 388.33 131.38 383.97 135.84 388.32 140.28"/><polygon class="cls-1" points="455.16 121.67 456.92 119.88 454.82 113.12 450.8 117.22 455.16 121.67"/><polygon class="cls-1" points="386.61 129.63 382.25 125.18 377.89 129.63 382.25 134.08 386.61 129.63"/><polygon class="cls-1" points="426.5 154.44 430.86 158.9 435.21 154.45 430.86 150 426.5 154.44"/><polygon class="cls-1" points="443.01 84.45 445.21 82.2 443.21 75.76 443.01 75.55 438.65 80 443.01 84.45"/><polygon class="cls-1" points="426.29 64.3 423.27 64.3 424.78 65.84 426.29 64.3"/><polygon class="cls-1" points="424.78 78.25 429.14 73.8 424.78 69.35 420.42 73.8 424.78 78.25"/><polygon class="cls-1" points="402.19 117.22 406.55 121.68 410.91 117.22 406.55 112.77 402.19 117.22"/><polygon class="cls-1" points="400.48 127.88 404.83 123.43 400.48 118.98 396.12 123.43 400.48 127.88"/><polygon class="cls-1" points="390.04 129.63 394.4 134.08 398.76 129.63 394.4 125.18 390.04 129.63"/><polygon class="cls-1" points="418.7 100.37 414.35 104.82 418.7 109.27 423.06 104.82 418.7 100.37"/><polygon class="cls-1" points="412.63 115.47 416.99 111.02 412.63 106.57 408.27 111.02 412.63 115.47"/><polygon class="cls-1" points="406.55 158.9 410.91 154.45 406.55 150 402.19 154.45 406.55 158.9"/><polygon class="cls-1" points="412.63 165.1 416.99 160.65 412.63 156.2 408.27 160.65 412.63 165.1"/><polygon class="cls-1" points="394.4 146.49 398.76 142.04 394.4 137.59 390.04 142.04 394.4 146.49"/><polygon class="cls-1" points="429.14 160.65 424.78 156.2 420.42 160.65 424.78 165.1 429.14 160.65"/><polygon class="cls-1" points="424.78 94.16 420.42 98.61 424.78 103.06 429.14 98.61 424.78 94.16"/><polygon class="cls-1" points="400.48 152.69 404.84 148.24 400.48 143.79 396.12 148.24 400.48 152.69"/><polygon class="cls-1" points="402.19 142.04 406.55 146.49 410.91 142.04 406.55 137.59 402.19 142.04"/><polygon class="cls-1" points="429.14 148.24 424.78 143.79 420.42 148.24 424.78 152.69 429.14 148.24"/><polygon class="cls-1" points="430.86 137.59 426.5 142.04 430.85 146.49 435.21 142.04 430.86 137.59"/><polygon class="cls-1" points="423.06 154.44 418.7 150 414.35 154.45 418.7 158.9 423.06 154.44"/><polygon class="cls-1" points="436.93 131.38 432.57 135.84 436.93 140.28 441.29 135.83 436.93 131.38"/><polygon class="cls-1" points="408.27 148.24 412.63 152.69 416.99 148.24 412.63 143.79 408.27 148.24"/><polygon class="cls-1" points="438.65 117.22 443.01 121.68 447.37 117.22 443.01 112.77 438.65 117.22"/><polygon class="cls-1" points="436.93 106.57 432.57 111.02 436.93 115.47 441.29 111.02 436.93 106.57"/><polygon class="cls-1" points="426.5 104.82 430.86 109.27 435.21 104.82 430.86 100.37 426.5 104.82"/><polygon class="cls-1" points="443.01 125.18 438.65 129.63 443.01 134.08 447.37 129.63 443.01 125.18"/><polygon class="cls-1" points="444.73 111.02 449.08 115.47 453.44 111.02 449.08 106.57 444.73 111.02"/><polygon class="cls-1" points="449.08 118.98 444.72 123.43 449.08 127.88 453.44 123.43 449.08 118.98"/><polygon class="cls-1" points="423.06 166.85 418.7 162.4 414.34 166.85 418.7 171.3 423.06 166.85"/><polygon class="cls-1" points="403.64 211.5 404.83 210.28 400.48 205.83 396.12 210.28 397.31 211.5 403.64 211.5"/><polygon class="cls-1" points="440.1 211.5 441.29 210.28 436.93 205.83 432.57 210.28 433.77 211.5 440.1 211.5"/><polygon class="cls-1" points="398.76 204.08 394.4 199.63 390.04 204.08 394.4 208.53 398.76 204.08"/><polygon class="cls-1" points="371.81 185.47 376.18 189.92 380.53 185.47 376.17 181.01 371.81 185.47"/><polygon class="cls-1" points="386.61 191.67 382.25 187.22 377.89 191.67 382.25 196.12 386.61 191.67"/><polygon class="cls-1" points="392.68 197.87 388.32 193.42 383.96 197.87 388.32 202.32 392.68 197.87"/><polygon class="cls-1" points="447.37 204.08 443.01 199.63 438.65 204.08 443.01 208.53 447.37 204.08"/><polygon class="cls-1" points="473.39 177.51 474.48 176.39 472.38 169.63 469.03 173.06 473.39 177.51"/><polygon class="cls-1" points="467.31 174.81 462.95 179.26 467.31 183.71 471.67 179.26 467.31 174.81"/><polygon class="cls-1" points="465.59 185.47 461.23 181.01 456.88 185.46 461.24 189.91 465.59 185.47"/><polygon class="cls-1" points="453.44 197.87 449.08 193.42 444.72 197.87 449.08 202.32 453.44 197.87"/><polygon class="cls-1" points="459.52 191.67 455.16 187.22 450.8 191.67 455.16 196.12 459.52 191.67"/><polygon class="cls-1" points="368.38 173.06 365.02 169.63 362.93 176.39 364.02 177.51 368.38 173.06"/><polygon class="cls-1" points="365.74 179.26 370.1 183.71 374.46 179.26 370.1 174.81 365.74 179.26"/><polygon class="cls-1" points="450.8 179.26 455.16 183.71 459.52 179.26 455.16 174.81 450.8 179.26"/><polygon class="cls-1" points="456.88 173.06 461.24 177.51 465.59 173.06 461.24 168.61 456.88 173.06"/><polygon class="cls-1" points="447.37 191.67 443.01 187.22 438.65 191.67 443.01 196.12 447.37 191.67"/><polygon class="cls-1" points="441.29 197.87 436.93 193.42 432.57 197.87 436.93 202.32 441.29 197.87"/><polygon class="cls-1" points="453.44 185.46 449.08 181.01 444.73 185.46 449.08 189.91 453.44 185.46"/><polygon class="cls-1" points="475.31 179.06 475.11 179.26 475.49 179.66 475.31 179.06"/><polygon class="cls-1" points="462.95 166.85 467.31 171.3 471.55 166.97 471.44 166.62 467.31 162.4 462.95 166.85"/><polygon class="cls-1" points="395.77 70.65 398.76 67.6 397.21 66.01 395.77 70.65"/><polygon class="cls-1" points="469.45 160.22 469.03 160.65 469.85 161.48 469.45 160.22"/><polygon class="cls-1" points="401.99 64.3 398.96 64.3 400.48 65.84 401.99 64.3"/><polygon class="cls-1" points="435.21 204.08 430.86 199.63 426.5 204.08 430.86 208.53 435.21 204.08"/><polygon class="cls-1" points="464.4 211.5 465.59 210.28 461.23 205.83 456.87 210.28 458.07 211.5 464.4 211.5"/><polygon class="cls-1" points="379.34 211.5 380.53 210.28 376.17 205.83 371.81 210.28 373.01 211.5 379.34 211.5"/><polygon class="cls-1" points="477.75 197.87 473.38 193.42 469.03 197.87 473.39 202.32 477.75 197.87"/><polygon class="cls-1" points="471.67 204.07 467.31 199.62 462.95 204.07 467.31 208.53 471.67 204.07"/><polygon class="cls-1" points="374.46 204.07 370.1 199.63 365.74 204.08 370.1 208.53 374.46 204.07"/><polygon class="cls-1" points="359.66 197.87 364.02 202.32 368.38 197.87 364.02 193.42 359.66 197.87"/><polygon class="cls-1" points="362.31 191.67 359.17 188.47 357.07 195.23 357.94 196.12 362.31 191.67"/><polygon class="cls-1" points="362.31 204.08 357.94 199.63 354.67 202.97 354.15 204.65 357.94 208.53 362.31 204.08"/><polygon class="cls-1" points="482.37 211.5 485.39 211.5 484.09 207.31 481.18 210.28 482.37 211.5"/><polygon class="cls-1" points="400.48 177.51 404.83 173.06 400.48 168.61 396.12 173.06 400.48 177.51"/><polygon class="cls-1" points="360.85 211.5 367.19 211.5 368.38 210.28 364.02 205.83 359.66 210.28 360.85 211.5"/><polygon class="cls-1" points="356.23 210.28 353.32 207.31 352.02 211.5 355.04 211.5 356.23 210.28"/><polygon class="cls-1" points="475.1 204.07 479.46 208.53 483.26 204.65 482.74 202.97 479.46 199.63 475.1 204.07"/><polygon class="cls-1" points="391.49 211.5 392.68 210.28 388.32 205.83 383.97 210.28 385.16 211.5 391.49 211.5"/><polygon class="cls-1" points="376.17 202.32 380.53 197.87 376.17 193.42 371.81 197.87 376.17 202.32"/><polygon class="cls-1" points="479.46 196.12 480.33 195.23 478.23 188.47 475.1 191.67 479.46 196.12"/><polygon class="cls-1" points="368.38 185.47 364.02 181.01 360.31 184.8 360 185.81 364.02 189.92 368.38 185.47"/><polygon class="cls-1" points="370.1 196.12 374.46 191.67 370.1 187.22 365.74 191.67 370.1 196.12"/><polygon class="cls-1" points="386.61 204.08 382.25 199.63 377.89 204.07 382.25 208.53 386.61 204.08"/><polygon class="cls-1" points="452.25 211.5 453.44 210.28 449.08 205.83 444.73 210.28 445.92 211.5 452.25 211.5"/><polygon class="cls-1" points="469.03 185.47 473.39 189.91 477.41 185.81 477.09 184.8 473.39 181.01 469.03 185.47"/><polygon class="cls-1" points="462.95 191.67 467.31 196.12 471.67 191.67 467.31 187.22 462.95 191.67"/><polygon class="cls-1" points="459.52 204.07 455.16 199.63 450.8 204.08 455.16 208.53 459.52 204.07"/><polygon class="cls-1" points="465.59 197.87 461.24 193.42 456.88 197.87 461.23 202.32 465.59 197.87"/><polygon class="cls-1" points="476.55 211.5 477.75 210.28 473.39 205.83 469.03 210.28 470.22 211.5 476.55 211.5"/><polygon class="cls-1" points="400.48 90.66 404.83 86.21 400.48 81.76 396.12 86.2 400.48 90.66"/><polygon class="cls-1" points="398.76 92.41 394.4 87.96 390.04 92.41 394.4 96.86 398.76 92.41"/><polygon class="cls-1" points="392.68 98.61 388.43 94.27 386.33 101.03 388.32 103.06 392.68 98.61"/><polygon class="cls-1" points="412.63 78.25 416.99 73.8 412.63 69.35 408.27 73.8 412.63 78.25"/><polygon class="cls-1" points="402.19 80 406.55 84.45 410.91 80 406.55 75.55 402.19 80"/><polygon class="cls-1" points="374.46 154.44 370.88 150.79 368.78 157.55 370.1 158.9 374.46 154.44"/><polygon class="cls-1" points="383.97 173.06 388.33 177.51 392.68 173.06 388.33 168.61 383.97 173.06"/><polygon class="cls-1" points="404.84 185.46 400.48 181.01 396.12 185.46 400.48 189.91 404.84 185.46"/><polygon class="cls-1" points="398.76 179.26 394.4 174.81 390.04 179.26 394.4 183.71 398.76 179.26"/><polygon class="cls-1" points="436.93 78.25 441.29 73.8 436.93 69.35 432.57 73.8 436.93 78.25"/><polygon class="cls-1" points="371.81 160.65 376.17 165.1 380.53 160.65 376.17 156.2 371.81 160.65"/><polygon class="cls-1" points="377.89 166.85 382.25 171.3 386.61 166.85 382.25 162.4 377.89 166.85"/><polygon class="cls-1" points="410.91 191.67 406.55 187.22 402.19 191.67 406.55 196.12 410.91 191.67"/><polygon class="cls-1" points="463.6 141.38 462.95 142.04 464.2 143.31 463.6 141.38"/><polygon class="cls-1" points="423.06 191.67 418.7 187.22 414.35 191.67 418.7 196.12 423.06 191.67"/><polygon class="cls-1" points="410.91 179.26 406.55 174.81 402.19 179.26 406.55 183.71 410.91 179.26"/><polygon class="cls-1" points="416.99 185.47 412.63 181.01 408.27 185.47 412.63 189.91 416.99 185.47"/><polygon class="cls-1" points="435.21 179.26 430.86 174.81 426.5 179.26 430.85 183.71 435.21 179.26"/><polygon class="cls-1" points="429.14 185.46 424.78 181.01 420.42 185.46 424.78 189.91 429.14 185.46"/><polygon class="cls-1" points="450.8 154.45 455.16 158.89 459.52 154.45 455.16 150 450.8 154.45"/><polygon class="cls-1" points="456.88 148.24 461.23 152.69 465.59 148.24 461.23 143.79 456.88 148.24"/><polygon class="cls-1" points="441.29 173.06 436.93 168.61 432.57 173.06 436.93 177.51 441.29 173.06"/><polygon class="cls-1" points="438.65 166.85 443.01 171.3 447.37 166.85 443.01 162.4 438.65 166.85"/><polygon class="cls-1" points="444.72 160.65 449.08 165.1 453.44 160.65 449.08 156.2 444.72 160.65"/><polygon class="cls-1" points="414.14 64.3 411.12 64.3 412.63 65.84 414.14 64.3"/><polygon class="cls-1" points="374.45 166.85 370.1 162.4 365.96 166.63 365.85 166.97 370.1 171.3 374.45 166.85"/><polygon class="cls-1" points="382.25 183.71 386.61 179.26 382.25 174.81 377.89 179.26 382.25 183.71"/><polygon class="cls-1" points="367.95 160.21 367.55 161.5 368.38 160.65 367.95 160.21"/><polygon class="cls-1" points="427.95 211.5 429.14 210.28 424.78 205.83 420.42 210.28 421.62 211.5 427.95 211.5"/><polygon class="cls-1" points="404.83 73.8 400.48 69.35 396.12 73.8 400.48 78.25 404.83 73.8"/><polygon class="cls-1" points="391.36 84.85 390.13 88.81 392.68 86.2 391.36 84.85"/><polygon class="cls-1" points="376.17 177.51 380.53 173.06 376.17 168.61 371.81 173.06 376.17 177.51"/><polygon class="cls-1" points="388.32 189.91 392.68 185.46 388.33 181.02 383.97 185.47 388.32 189.91"/><polygon class="cls-1" points="415.79 211.5 416.99 210.28 412.63 205.83 408.27 210.28 409.46 211.5 415.79 211.5"/><polygon class="cls-1" points="410.91 204.07 406.55 199.63 402.19 204.07 406.55 208.53 410.91 204.07"/><polygon class="cls-1" points="416.99 197.87 412.63 193.42 408.27 197.87 412.63 202.32 416.99 197.87"/><polygon class="cls-1" points="398.76 191.67 394.4 187.22 390.04 191.67 394.4 196.12 398.76 191.67"/><polygon class="cls-1" points="404.83 197.87 400.48 193.42 396.12 197.87 400.48 202.32 404.83 197.87"/><polygon class="cls-1" points="435.21 191.67 430.85 187.22 426.5 191.67 430.86 196.12 435.21 191.67"/><polygon class="cls-1" points="441.29 185.46 436.93 181.01 432.57 185.46 436.93 189.91 441.29 185.46"/><polygon class="cls-1" points="423.06 204.07 418.7 199.62 414.34 204.07 418.7 208.53 423.06 204.07"/><polygon class="cls-1" points="429.14 197.87 424.78 193.42 420.42 197.87 424.78 202.32 429.14 197.87"/><polygon class="cls-1" points="447.37 179.26 443.01 174.81 438.65 179.26 443.01 183.71 447.37 179.26"/><polygon class="cls-1" points="440.18 66.03 438.65 67.59 441.61 70.62 440.18 66.03"/><polygon class="cls-1" points="453.44 173.06 449.08 168.61 444.72 173.06 449.08 177.51 453.44 173.06"/><polygon class="cls-1" points="467.31 158.9 468.63 157.56 466.52 150.8 462.95 154.45 467.31 158.9"/><polygon class="cls-1" points="438.44 64.3 435.42 64.3 436.93 65.84 438.44 64.3"/><polygon class="cls-1" points="455.16 162.4 450.8 166.85 455.16 171.3 459.52 166.85 455.16 162.4"/><polygon class="cls-1" points="461.24 156.2 456.88 160.65 461.24 165.1 465.6 160.65 461.24 156.2"/><path class="cls-1" d="M394.42,58.85H443V24.28h-1.14L439.62,10.7l-2.23,13.58H400L397.8,10.7l-2.23,13.58h-1.16Zm37.27-30.24h4.39V53.4h-4.39Zm-6.05,0h4.47V53.4h-4.47Zm-6,0h4.47V53.4H419.6Zm-6,0H418V53.4h-4.47Zm-6,0H412V53.4h-4.46Zm-6.2,0h4.62V53.4h-4.62Z"/><rect class="cls-1" x="358.65" y="227.35" width="4.46" height="12.81" rx="0.91"/><rect class="cls-1" x="369.16" y="227.35" width="4.46" height="12.81" rx="0.91"/><rect class="cls-1" x="379.68" y="227.35" width="4.46" height="12.81" rx="0.91"/><rect class="cls-1" x="390.19" y="227.35" width="4.46" height="12.81" rx="0.91"/><rect class="cls-1" x="400.71" y="227.35" width="4.46" height="12.81" rx="0.91"/><rect class="cls-1" x="411.22" y="227.35" width="4.46" height="12.81" rx="0.91"/><rect class="cls-1" x="421.74" y="227.35" width="4.46" height="12.81" rx="0.91"/><rect class="cls-1" x="432.25" y="227.35" width="4.46" height="12.81" rx="0.91"/><rect class="cls-1" x="442.77" y="227.35" width="4.46" height="12.81" rx="0.91"/><rect class="cls-1" x="453.29" y="227.35" width="4.46" height="12.81" rx="0.91"/><rect class="cls-1" x="463.8" y="227.35" width="4.46" height="12.81" rx="0.91"/><rect class="cls-1" x="474.32" y="227.35" width="4.46" height="12.81" rx="0.91"/><path class="cls-1" d="M312.27,217.43v25.88h39.51V221.05H486.22v22.26h39.51V217.43Zm25.7,18.4h-11.9v-10.9H338Zm174,0H500v-10.9h11.9Z"/><path class="cls-1" d="M345.38,200.75h-2l-.88-29.28L332,162.32l-10.5,9.15-.88,29.28h-2l-1,10.94h28.71Zm-9.44-21.6v14.91h-7.83V179.15h0v-.06a3.92,3.92,0,0,1,7.83,0s0,0,0,.06Z"/><path class="cls-1" d="M519.33,200.75h-2l-.89-29.28L506,162.32l-10.51,9.15-.88,29.28h-2l-1,10.94h28.71Zm-17.27-21.6h0s0,0,0-.06a3.92,3.92,0,0,1,7.83,0v.06h0v14.91h-7.83"/><path class="cls-1" d="M333.12,156.71l11,8.66V154.21h-8.2l-2.22-35.15a4.24,4.24,0,1,0-3.36,0l-2.21,35.15h-8.21v11.16l10.94-8.66Z"/><path class="cls-1" d="M507.08,156.71l11,8.66V154.21h-8.2l-2.22-35.15a4.25,4.25,0,1,0-3.37,0l-2.21,35.15h-8.2v11.16l10.93-8.66Z"/><path class="cls-1" d="M324.05,366.87l7.9,8,7.9-8h11.93V255.71H486.22V366.87H498l7.9,8,7.9-8h11.89V249.06H312.27V366.87ZM500,262.35h11.91v101H500Zm-173.95,0H338v101h-11.9Z"/><polygon class="cls-1" points="687.83 373.85 679.93 381.83 672.03 373.85 610.06 373.85 601.94 373.85 600.84 373.85 592.93 381.83 585.04 373.85 523.06 373.85 514.94 373.85 513.84 373.85 505.94 381.83 498.04 373.85 436.07 373.85 427.95 373.85 426.85 373.85 418.95 381.83 411.05 373.85 349.07 373.85 340.95 373.85 339.85 373.85 331.95 381.83 324.05 373.85 262.08 373.85 253.96 373.85 252.86 373.85 244.96 381.83 237.06 373.85 175.09 373.85 166.97 373.85 165.86 373.85 157.96 381.83 150.06 373.85 140.95 373.85 140.95 379.06 147.93 379.06 157.96 389.2 168 379.06 175.09 379.06 234.92 379.06 244.96 389.2 255 379.06 262.08 379.06 321.92 379.06 331.95 389.2 341.99 379.06 349.07 379.06 408.91 379.06 418.95 389.2 428.98 379.06 436.07 379.06 495.9 379.06 505.94 389.2 515.98 379.06 523.06 379.06 582.9 379.06 592.93 389.2 602.97 379.06 610.06 379.06 669.89 379.06 679.93 389.2 689.97 379.06 697.05 379.06 697.05 373.85 687.83 373.85"/><polygon class="cls-1" points="566.07 411.68 566.07 507.41 592.05 507.41 592.05 451.8 566.07 411.68"/><polygon class="cls-1" points="667.82 411.68 641.47 452.43 641.43 452.51 641.43 507.41 667.82 507.41 667.82 411.68 667.82 411.68"/><path class="cls-1" d="M504.07,411h25.57l40.76,96.42H542l-4.23-10.36a10.81,10.81,0,0,0-10-6.73H497.84l-6.63,17.09h-27.9Zm23.25,58.68-10.67-27.22-10.81,27.22Z"/><path class="cls-1" d="M155.59,411h25.58l40.76,96.42H193.48l-7-17.09H157.33a11.46,11.46,0,0,0-10.64,7.2l-3.95,9.89h-27.9Zm23.26,58.68-10.67-27.22-10.81,27.22Z"/><path class="cls-1" d="M51.41,421.39a9.71,9.71,0,0,1,9.71-9.71H92.44c24.2,0,39.79,12.44,39.79,33.64v.28c0,22.56-17.36,34.46-41.16,34.46H77.94v27.35H51.41Zm39.11,37.88c9.44,0,15.18-4.92,15.18-12.44v-.28c0-8.2-5.74-12.58-15.32-12.58H77.94v25.3Z"/><path class="cls-1" d="M347.73,411h14.34l40.76,96.42H374.38l-7-17.09H330.48l-6.84,17.09h-27.9l36.38-86.07A17,17,0,0,1,347.73,411m12,58.68-10.67-27.22-10.81,27.22Z"/><path class="cls-1" d="M667.82,411.68h49.1c12,0,20.51,3,26.12,8.62a21,21,0,0,1,6.15,15.45V436c0,11.08-6.29,17.64-14.77,21.34,11.63,3.83,19,10.39,19,23.38V481c0,16.42-13.4,26.4-36.24,26.4H667.82Zm42.53,38.15c8.07,0,12.59-2.73,12.59-8.34v-.27c0-5.2-4.11-8.21-12-8.21H693.67v16.82Zm3.83,36.25c8.07,0,12.72-3.15,12.72-8.76v-.27c0-5.19-4.1-8.61-13-8.61H693.67v17.64Z"/><rect class="cls-1" x="759.89" y="411.68" width="26.67" height="95.73"/><path class="cls-1" d="M385.38,459.82v-.27c0-27.91,21.48-49.79,50.47-49.79,19.55,0,32.14,8.21,40.62,20l-15.18,11.74a6.53,6.53,0,0,1-8.51-.39,23.77,23.77,0,0,0-17.2-7.11c-13.41,0-22.84,11.35-22.84,25.3v.28c0,14.35,9.43,25.57,22.84,25.57,7.86,0,13.18-2.89,17.89-7.52a6.63,6.63,0,0,1,8.49-.71l15.19,10.83c-9,12.44-21.19,21.61-42.4,21.61-27.35,0-49.37-20.93-49.37-49.51"/><polygon class="cls-1" points="155.59 410.99 168.18 442.45 181.16 410.99 155.59 410.99"/><path class="cls-1" d="M178.85,469.67l7.65,20.65h28.2l-4.82-11.41a15.14,15.14,0,0,0-13.95-9.24Z"/><polygon class="cls-1" points="505.84 469.67 491.21 507.41 463.31 507.41 479.27 469.67 505.84 469.67"/><polygon class="cls-1" points="529.64 410.99 516.65 442.46 527.32 469.67 554.44 469.67 529.64 410.99"/><path class="cls-1" d="M667.82,411.68l-26.35,40.75-18.14,27.71a7.72,7.72,0,0,1-12.87.07l-44.39-68.53h25.26a5.24,5.24,0,0,1,4.33,2.3l19.88,29.51a1.69,1.69,0,0,0,2.81,0L637.83,414a5.22,5.22,0,0,1,4.35-2.34Z"/><polygon class="cls-1" points="759.89 411.68 786.57 411.68 773.38 430.34 759.89 411.68"/><polygon class="cls-1" points="786.57 507.41 759.9 507.41 773.08 488.75 786.57 507.41"/><path class="cls-1" d="M217.6,411.68h45.27c14.63,0,24.75,3.83,31.18,10.39,5.61,5.48,8.48,12.86,8.48,22.3v.27c0,14.63-7.79,24.34-19.69,29.4l22.84,33.37H280.9a10.91,10.91,0,0,1-9.1-4.88l-16-24.11H244.13v18.06a10.93,10.93,0,0,1-10.93,10.93H217.6Zm44,45.95c9,0,14.23-4.38,14.23-11.35V446c0-7.52-5.48-11.34-14.37-11.34H244.13v23Z"/><path class="cls-1" d="M347.73,411h14.34l40.76,96.42H374.38l-7-17.09H330.48l-6.84,17.09h-27.9l36.38-86.07A17,17,0,0,1,347.73,411m12,58.68-10.67-27.22-10.81,27.22Z"/><path class="cls-1" d="M359.75,469.67,352,490.32H303l8.74-20.66h48.05"/><polygon class="cls-1" points="351.96 490.32 372.53 435.75 402.82 507.41 374.38 507.41 367.4 490.32 351.96 490.32"/></svg>